<svg width="800" height="600" xmlns="http://www.w3.org/2000/svg">
<circle cx="200" cy="400" r="100" stroke="black" stroke-width="2" fill="none" />
<line x1="280.0" y1="400.0" x2="320.0" y2="400.0" stroke="black" stroke-width="2" />
<line x1="256.5685424949238" y1="456.5685424949238" x2="284.8528137423857" y2="484.8528137423857" stroke="black" stroke-width="2" />
<line x1="200.0" y1="480.0" x2="200.0" y2="520.0" stroke="black" stroke-width="2" />
<line x1="143.4314575050762" y1="456.5685424949238" x2="115.14718625761431" y2="484.8528137423857" stroke="black" stroke-width="2" />
<line x1="120.0" y1="400.0" x2="80.0" y2="400.0" stroke="black" stroke-width="2" />
<line x1="143.4314575050762" y1="343.4314575050762" x2="115.14718625761428" y2="315.1471862576143" stroke="black" stroke-width="2" />
<line x1="199.99999999999997" y1="320.0" x2="199.99999999999997" y2="280.0" stroke="black" stroke-width="2" />
<line x1="256.5685424949238" y1="343.4314575050762" x2="284.8528137423857" y2="315.1471862576143" stroke="black" stroke-width="2" />
<circle cx="200" cy="400" r="40" stroke="black" stroke-width="2" fill="none" />
<line x1="228.2842712474619" y1="428.2842712474619" x2="400" y2="250" stroke="black" stroke-width="2" />
<line x1="400" y1="150" x2="400" y2="350" stroke="black" stroke-width="2" />
<line x1="400" y1="160" x2="390" y2="170" stroke="black" stroke-width="2" />
<line x1="390" y1="170" x2="400" y2="180" stroke="black" stroke-width="2" />
<line x1="400" y1="180" x2="390" y2="190" stroke="black" stroke-width="2" />
<line x1="390" y1="190" x2="400" y2="200" stroke="black" stroke-width="2" />
<line x1="400" y1="200" x2="390" y2="210" stroke="black" stroke-width="2" />
<line x1="390" y1="210" x2="400" y2="220" stroke="black" stroke-width="2" />
<line x1="400" y1="220" x2="390" y2="230" stroke="black" stroke-width="2" />
<line x1="390" y1="230" x2="400" y2="240" stroke="black" stroke-width="2" />
<line x1="400" y1="240" x2="390" y2="250" stroke="black" stroke-width="2" />
<line x1="390" y1="250" x2="400" y2="260" stroke="black" stroke-width="2" />
<line x1="400" y1="260" x2="390" y2="270" stroke="black" stroke-width="2" />
<line x1="390" y1="270" x2="400" y2="280" stroke="black" stroke-width="2" />
<line x1="400" y1="280" x2="390" y2="290" stroke="black" stroke-width="2" />
<line x1="390" y1="290" x2="400" y2="300" stroke="black" stroke-width="2" />
<line x1="400" y1="300" x2="390" y2="310" stroke="black" stroke-width="2" />
<line x1="390" y1="310" x2="400" y2="320" stroke="black" stroke-width="2" />
<line x1="400" y1="320" x2="390" y2="330" stroke="black" stroke-width="2" />
<line x1="390" y1="330" x2="400" y2="340" stroke="black" stroke-width="2" />
<line x1="400" y1="340" x2="390" y2="350" stroke="black" stroke-width="2" />
<line x1="390" y1="350" x2="400" y2="360" stroke="black" stroke-width="2" />
<rect x="380" y="250" width="200" height="50" stroke="black" stroke-width="2" fill="none" />
</svg>